<svg xmlns="http://www.w3.org/2000/svg" enable-background="new 0 0 500 500" viewBox="0 0 500 500" id="real-estate"><path fill="#4A60A1" d="M462.7,223.3l-200-155.2c-7.5-5.8-17.9-5.8-25.4,0l-63.2,49V78.1H119V160l-81.6,63.3c-9,7-10.7,20-3.7,29
			c7,9,20,10.7,29,3.7l13.2-10.2v169.7c0,11.4,9.3,20.7,20.7,20.7h306.9c11.4,0,20.7-9.3,20.7-20.7V245.8l13.2,10.2
			c3.8,2.9,8.2,4.3,12.7,4.3c6.2,0,12.3-2.8,16.4-8C473.3,243.3,471.7,230.3,462.7,223.3z M382.8,394.8H117.2V213.7l132.8-103
			l132.8,103V394.8z"></path><rect width="82.8" height="137.9" x="148.4" y="242.5" fill="#4A60A1"></rect><rect width="41.4" height="41.4" x="255" y="242.5" fill="#4A60A1"></rect><rect width="41.4" height="41.4" x="310.2" y="242.5" fill="#4A60A1"></rect><rect width="41.4" height="41.4" x="255" y="297.7" fill="#4A60A1"></rect><rect width="41.4" height="41.4" x="310.2" y="297.7" fill="#4A60A1"></rect></svg>